{
  "accessors": [
    {
      "bufferView": 2,
      "componentType": 5126,
      "count": 30,
      "max": [
        2.082540512084961,
        1.0941962003707886,
        -6.807104110717773
      ],
      "min": [
        -2.0825419425964355,
        -0.039502888917922974,
        -12.877206802368164
      ],
      "type": "VEC3"
    },
    {
      "bufferView": 2,
      "byteOffset": 360,
      "componentType": 5126,
      "count": 30,
      "max": [
        0.5827175378799438,
        0.9522808790206909,
        -0.0222572423517704
      ],
      "min": [
        -0.5827175378799438,
        0.8030527234077454,
        -0.2443154901266098
      ],
      "type": "VEC3"
    },
    {
      "bufferView": 1,
      "componentType": 5126,
      "count": 30,
      "max": [
        0.75,
        0.5303921103477478
      ],
      "min": [
        0.6369472146034241,
        0.5
      ],
      "type": "VEC2"
    },
    {
      "bufferView": 0,
      "componentType": 5125,
      "count": 42,
      "type": "SCALAR"
    },
    {
      "bufferView": 2,
      "byteOffset": 720,
      "componentType": 5126,
      "count": 3056,
      "max": [
        9.93911361694336,
        4.059683322906494,
        16.05503273010254
      ],
      "min": [
        -9.939115524291992,
        -1.7014191150665283,
        -13.333970069885254
      ],
      "type": "VEC3"
    },
    {
      "bufferView": 2,
      "byteOffset": 37392,
      "componentType": 5126,
      "count": 3056,
      "max": [
        0.9998301863670349,
        0.9997484087944031,
        1.0
      ],
      "min": [
        -0.9998301863670349,
        -0.9983574151992798,
        -1.0
      ],
      "type": "VEC3"
    },
    {
      "bufferView": 1,
      "byteOffset": 240,
      "componentType": 5126,
      "count": 3056,
      "max": [
        1.0,
        1.0
      ],
      "min": [
        0.0,
        0.01000000536441803
      ],
      "type": "VEC2"
    },
    {
      "bufferView": 0,
      "byteOffset": 168,
      "componentType": 5125,
      "count": 4662,
      "type": "SCALAR"
    },
    {
      "bufferView": 2,
      "byteOffset": 74064,
      "componentType": 5126,
      "count": 156,
      "max": [
        5.687656879425049,
        0.6552412509918213,
        12.272634506225586
      ],
      "min": [
        -5.687657833099365,
        -0.592875599861145,
        -13.333970069885254
      ],
      "type": "VEC3"
    },
    {
      "bufferView": 2,
      "byteOffset": 75936,
      "componentType": 5126,
      "count": 156,
      "max": [
        0.8774446249008179,
        0.9980825185775757,
        0.47967803478240967
      ],
      "min": [
        -0.8774446249008179,
        -0.851005494594574,
        -1.0
      ],
      "type": "VEC3"
    },
    {
      "bufferView": 1,
      "byteOffset": 24688,
      "componentType": 5126,
      "count": 156,
      "max": [
        0.8832732439041138,
        0.7441278696060181
      ],
      "min": [
        0.39596879482269287,
        0.07621083408594131
      ],
      "type": "VEC2"
    },
    {
      "bufferView": 0,
      "byteOffset": 18816,
      "componentType": 5125,
      "count": 264,
      "type": "SCALAR"
    },
    {
      "bufferView": 2,
      "byteOffset": 77808,
      "componentType": 5126,
      "count": 48,
      "max": [
        9.060853004455566,
        3.1080808639526367,
        14.198762893676758
      ],
      "min": [
        -9.0608549118042,
        -0.2132066786289215,
        -6.082581520080566
      ],
      "type": "VEC3"
    },
    {
      "bufferView": 2,
      "byteOffset": 78384,
      "componentType": 5126,
      "count": 48,
      "max": [
        0.9178062677383423,
        0.9960805773735046,
        0.05651044100522995
      ],
      "min": [
        -0.9178062677383423,
        0.39298638701438904,
        -0.1683310866355896
      ],
      "type": "VEC3"
    },
    {
      "bufferView": 1,
      "byteOffset": 25936,
      "componentType": 5126,
      "count": 48,
      "max": [
        0.75,
        0.7439334988594055
      ],
      "min": [
        0.6249998807907104,
        0.5391441583633423
      ],
      "type": "VEC2"
    },
    {
      "bufferView": 0,
      "byteOffset": 19872,
      "componentType": 5125,
      "count": 72,
      "type": "SCALAR"
    },
    {
      "bufferView": 2,
      "byteOffset": 78960,
      "componentType": 5126,
      "count": 72,
      "max": [
        8.87053394317627,
        0.8445250988006592,
        15.17955207824707
      ],
      "min": [
        -8.870535850524902,
        -1.3628928661346436,
        12.500127792358398
      ],
      "type": "VEC3"
    },
    {
      "bufferView": 2,
      "byteOffset": 79824,
      "componentType": 5126,
      "count": 72,
      "max": [
        0.9675576090812683,
        0.9906855225563049,
        0.9999722242355347
      ],
      "min": [
        -0.9675576090812683,
        -0.9916384220123291,
        -0.2517457902431488
      ],
      "type": "VEC3"
    },
    {
      "bufferView": 1,
      "byteOffset": 26320,
      "componentType": 5126,
      "count": 72,
      "max": [
        0.5940953493118286,
        0.8590338230133057
      ],
      "min": [
        0.4063361585140228,
        0.75
      ],
      "type": "VEC2"
    },
    {
      "bufferView": 0,
      "byteOffset": 20160,
      "componentType": 5125,
      "count": 108,
      "type": "SCALAR"
    },
    {
      "bufferView": 2,
      "byteOffset": 80688,
      "componentType": 5126,
      "count": 9812,
      "max": [
        16.718027114868164,
        2.857769250869751,
        38.39378356933594
      ],
      "min": [
        -16.718027114868164,
        -2.857769250869751,
        -1.0060100555419922
      ],
      "type": "VEC3"
    },
    {
      "bufferView": 2,
      "byteOffset": 198432,
      "componentType": 5126,
      "count": 9812,
      "max": [
        1.0,
        1.0,
        1.0
      ],
      "min": [
        -1.0,
        -0.9999930262565613,
        -1.0
      ],
      "type": "VEC3"
    },
    {
      "bufferView": 1,
      "byteOffset": 26896,
      "componentType": 5126,
      "count": 9812,
      "max": [
        1.0,
        1.0
      ],
      "min": [
        -0.008547904901206493,
        0.0
      ],
      "type": "VEC2"
    },
    {
      "bufferView": 0,
      "byteOffset": 20592,
      "componentType": 5125,
      "count": 14904,
      "type": "SCALAR"
    },
    {
      "bufferView": 2,
      "byteOffset": 316176,
      "componentType": 5126,
      "count": 200,
      "max": [
        12.41085147857666,
        1.1902132034301758,
        38.29493713378906
      ],
      "min": [
        -12.41085147857666,
        -1.1902132034301758,
        34.73817825317383
      ],
      "type": "VEC3"
    },
    {
      "bufferView": 2,
      "byteOffset": 318576,
      "componentType": 5126,
      "count": 200,
      "max": [
        0.9762395024299622,
        0.9999600648880005,
        0.989129364490509
      ],
      "min": [
        -0.9762395024299622,
        -0.9999600648880005,
        -0.10385527461767197
      ],
      "type": "VEC3"
    },
    {
      "bufferView": 1,
      "byteOffset": 105392,
      "componentType": 5126,
      "count": 200,
      "max": [
        0.556320071220398,
        0.9753658175468445
      ],
      "min": [
        0.44181007146835327,
        0.8831772208213806
      ],
      "type": "VEC2"
    },
    {
      "bufferView": 0,
      "byteOffset": 80208,
      "componentType": 5125,
      "count": 288,
      "type": "SCALAR"
    },
    {
      "bufferView": 2,
      "byteOffset": 320976,
      "componentType": 5126,
      "count": 332,
      "max": [
        14.965699195861816,
        2.3093252182006836,
        28.81922721862793
      ],
      "min": [
        -14.965699195861816,
        -2.3093252182006836,
        -0.6639175415039063
      ],
      "type": "VEC3"
    },
    {
      "bufferView": 2,
      "byteOffset": 324960,
      "componentType": 5126,
      "count": 332,
      "max": [
        0.47189658880233765,
        0.997802197933197,
        1.0
      ],
      "min": [
        -0.47189658880233765,
        -0.997802197933197,
        -0.9999868869781494
      ],
      "type": "VEC3"
    },
    {
      "bufferView": 1,
      "byteOffset": 106992,
      "componentType": 5126,
      "count": 332,
      "max": [
        0.8636098504066467,
        0.7512649297714233
      ],
      "min": [
        0.08268016576766968,
        0.08268000185489655
      ],
      "type": "VEC2"
    },
    {
      "bufferView": 0,
      "byteOffset": 81360,
      "componentType": 5125,
      "count": 660,
      "type": "SCALAR"
    },
    {
      "bufferView": 2,
      "byteOffset": 328944,
      "componentType": 5126,
      "count": 720,
      "max": [
        15.153641700744629,
        1.9134961366653442,
        36.56657409667969
      ],
      "min": [
        -15.153641700744629,
        -1.9134961366653442,
        -0.8092937469482422
      ],
      "type": "VEC3"
    },
    {
      "bufferView": 2,
      "byteOffset": 337584,
      "componentType": 5126,
      "count": 720,
      "max": [
        0.9807853102684021,
        0.9998859167098999,
        0.9807853102684021
      ],
      "min": [
        -0.9807853102684021,
        -0.9998859167098999,
        -0.9807853102684021
      ],
      "type": "VEC3"
    },
    {
      "bufferView": 1,
      "byteOffset": 109648,
      "componentType": 5126,
      "count": 720,
      "max": [
        0.9909681677818298,
        0.7512649297714233
      ],
      "min": [
        0.0,
        0.5160809755325317
      ],
      "type": "VEC2"
    },
    {
      "bufferView": 0,
      "byteOffset": 84000,
      "componentType": 5125,
      "count": 1080,
      "type": "SCALAR"
    },
    {
      "bufferView": 3,
      "componentType": 5126,
      "count": 100,
      "max": [
        4.166666507720947
      ],
      "min": [
        0.0416666679084301
      ],
      "type": "SCALAR"
    },
    {
      "bufferView": 4,
      "componentType": 5126,
      "count": 100,
      "max": [
        0.0,
        1.0,
        -0.0,
        1.0
      ],
      "min": [
        0.0,
        -0.9988902807235718,
        -0.0,
        7.549790126404332e-08
      ],
      "type": "VEC4"
    },
    {
      "bufferView": 3,
      "byteOffset": 400,
      "componentType": 5126,
      "count": 101,
      "max": [
        4.166666507720947
      ],
      "min": [
        0.0
      ],
      "type": "SCALAR"
    },
    {
      "bufferView": 4,
      "byteOffset": 1600,
      "componentType": 5126,
      "count": 101,
      "max": [
        0.0,
        1.0,
        -0.0,
        1.0
      ],
      "min": [
        0.0,
        -0.998890221118927,
        -0.0,
        7.549790126404332e-08
      ],
      "type": "VEC4"
    }
  ],
  "animations": [
    {
      "channels": [
        {
          "sampler": 0,
          "target": {
            "node": 3,
            "path": "rotation"
          }
        }
      ],
      "name": "Action",
      "samplers": [
        {
          "input": 36,
          "interpolation": "LINEAR",
          "output": 37
        }
      ]
    },
    {
      "channels": [
        {
          "sampler": 0,
          "target": {
            "node": 3,
            "path": "rotation"
          }
        }
      ],
      "name": "Cube.001Action",
      "samplers": [
        {
          "input": 38,
          "interpolation": "LINEAR",
          "output": 39
        }
      ]
    }
  ],
  "asset": {
    "extras": {
      "author": "Rishav Gupta (https://sketchfab.com/Rishav_Gupta)",
      "license": "CC-BY-4.0 (http://creativecommons.org/licenses/by/4.0/)",
      "source": "https://sketchfab.com/3d-models/dreadnought-class-spaceship-invictus-6dddee76221d4e9cba9dc3ab8a9e5649",
      "title": "Dreadnought Class Spaceship : Invictus"
    },
    "generator": "Sketchfab-12.68.0",
    "version": "2.0"
  },
  "bufferViews": [
    {
      "buffer": 0,
      "byteLength": 88320,
      "name": "floatBufferViews",
      "target": 34963
    },
    {
      "buffer": 0,
      "byteLength": 115408,
      "byteOffset": 88320,
      "byteStride": 8,
      "name": "floatBufferViews",
      "target": 34962
    },
    {
      "buffer": 0,
      "byteLength": 346224,
      "byteOffset": 203728,
      "byteStride": 12,
      "name": "floatBufferViews",
      "target": 34962
    },
    {
      "buffer": 0,
      "byteLength": 804,
      "byteOffset": 549952,
      "name": "floatBufferViews"
    },
    {
      "buffer": 0,
      "byteLength": 3216,
      "byteOffset": 550756,
      "byteStride": 16,
      "name": "floatBufferViews"
    }
  ],
  "buffers": [
    {
      "byteLength": 553972,
      "uri": "scene.bin"
    }
  ],
  "extensionsUsed": [
    "KHR_materials_clearcoat"
  ],
  "materials": [
    {
      "doubleSided": true,
      "extensions": {
        "KHR_materials_clearcoat": {
          "clearcoatFactor": 1.0,
          "clearcoatRoughnessFactor": 0.04
        }
      },
      "name": "window_glass",
      "pbrMetallicRoughness": {
        "baseColorFactor": [
          0.2359592270049279,
          0.09771169522754407,
          0.0,
          1.0
        ],
        "roughnessFactor": 0.14126437847245668
      }
    },
    {
      "doubleSided": true,
      "extensions": {
        "KHR_materials_clearcoat": {
          "clearcoatFactor": 1.0,
          "clearcoatRoughnessFactor": 0.04
        }
      },
      "name": "wings_body",
      "pbrMetallicRoughness": {
        "baseColorFactor": [
          0.153193,
          0.038853599999999995,
          0.0,
          1.0
        ],
        "roughnessFactor": 0.04544129395201013
      }
    },
    {
      "doubleSided": true,
      "emissiveFactor": [
        1.0,
        0.7081771863319536,
        0.0
      ],
      "extensions": {
        "KHR_materials_clearcoat": {
          "clearcoatFactor": 1.0,
          "clearcoatRoughnessFactor": 0.04
        }
      },
      "name": "weapon_emit",
      "pbrMetallicRoughness": {
        "baseColorFactor": [
          1.0,
          0.0186888,
          0.0,
          1.0
        ],
        "metallicFactor": 0.0
      }
    },
    {
      "doubleSided": true,
      "extensions": {
        "KHR_materials_clearcoat": {
          "clearcoatFactor": 1.0,
          "clearcoatRoughnessFactor": 0.04
        }
      },
      "name": "wings_body_2",
      "pbrMetallicRoughness": {
        "baseColorFactor": [
          0.7999999999999999,
          0.3393999999999998,
          0.10782299999999995,
          1.0
        ],
        "metallicFactor": 0.897638,
        "roughnessFactor": 0.30315
      }
    },
    {
      "doubleSided": true,
      "emissiveFactor": [
        1.0,
        0.050396999999999956,
        0.0
      ],
      "extensions": {
        "KHR_materials_clearcoat": {
          "clearcoatFactor": 1.0,
          "clearcoatRoughnessFactor": 0.04
        }
      },
      "name": "thruster_emit",
      "pbrMetallicRoughness": {
        "baseColorFactor": [
          1.0,
          0.029616499999999973,
          0.0,
          1.0
        ],
        "metallicFactor": 0.0
      }
    }
  ],
  "meshes": [
    {
      "name": "Object_0",
      "primitives": [
        {
          "attributes": {
            "NORMAL": 1,
            "POSITION": 0,
            "TEXCOORD_0": 2
          },
          "indices": 3,
          "material": 0,
          "mode": 4
        }
      ]
    },
    {
      "name": "Object_1",
      "primitives": [
        {
          "attributes": {
            "NORMAL": 5,
            "POSITION": 4,
            "TEXCOORD_0": 6
          },
          "indices": 7,
          "material": 1,
          "mode": 4
        }
      ]
    },
    {
      "name": "Object_2",
      "primitives": [
        {
          "attributes": {
            "NORMAL": 9,
            "POSITION": 8,
            "TEXCOORD_0": 10
          },
          "indices": 11,
          "material": 2,
          "mode": 4
        }
      ]
    },
    {
      "name": "Object_3",
      "primitives": [
        {
          "attributes": {
            "NORMAL": 13,
            "POSITION": 12,
            "TEXCOORD_0": 14
          },
          "indices": 15,
          "material": 3,
          "mode": 4
        }
      ]
    },
    {
      "name": "Object_4",
      "primitives": [
        {
          "attributes": {
            "NORMAL": 17,
            "POSITION": 16,
            "TEXCOORD_0": 18
          },
          "indices": 19,
          "material": 4,
          "mode": 4
        }
      ]
    },
    {
      "name": "Object_5",
      "primitives": [
        {
          "attributes": {
            "NORMAL": 21,
            "POSITION": 20,
            "TEXCOORD_0": 22
          },
          "indices": 23,
          "material": 1,
          "mode": 4
        }
      ]
    },
    {
      "name": "Object_6",
      "primitives": [
        {
          "attributes": {
            "NORMAL": 25,
            "POSITION": 24,
            "TEXCOORD_0": 26
          },
          "indices": 27,
          "material": 4,
          "mode": 4
        }
      ]
    },
    {
      "name": "Object_7",
      "primitives": [
        {
          "attributes": {
            "NORMAL": 29,
            "POSITION": 28,
            "TEXCOORD_0": 30
          },
          "indices": 31,
          "material": 2,
          "mode": 4
        }
      ]
    },
    {
      "name": "Object_8",
      "primitives": [
        {
          "attributes": {
            "NORMAL": 33,
            "POSITION": 32,
            "TEXCOORD_0": 34
          },
          "indices": 35,
          "material": 3,
          "mode": 4
        }
      ]
    }
  ],
  "nodes": [
    {
      "children": [
        1
      ],
      "matrix": [
        1.0,
        0.0,
        0.0,
        0.0,
        0.0,
        2.220446049250313e-16,
        -1.0,
        0.0,
        0.0,
        1.0,
        2.220446049250313e-16,
        0.0,
        0.0,
        0.0,
        0.0,
        1.0
      ],
      "name": "Sketchfab_model"
    },
    {
      "children": [
        2
      ],
      "name": "root"
    },
    {
      "children": [
        3
      ],
      "matrix": [
        1.0,
        0.0,
        0.0,
        0.0,
        0.0,
        2.220446049250313e-16,
        1.0,
        0.0,
        0.0,
        -1.0,
        2.220446049250313e-16,
        0.0,
        0.0,
        0.0,
        0.0,
        1.0
      ],
      "name": "GLTF_SceneRootNode"
    },
    {
      "children": [
        4,
        5,
        6,
        7,
        8,
        9
      ],
      "name": "Cube.001_2"
    },
    {
      "mesh": 0,
      "name": "Object_4"
    },
    {
      "mesh": 1,
      "name": "Object_5"
    },
    {
      "mesh": 2,
      "name": "Object_6"
    },
    {
      "mesh": 3,
      "name": "Object_7"
    },
    {
      "mesh": 4,
      "name": "Object_8"
    },
    {
      "children": [
        10,
        11,
        12,
        13
      ],
      "matrix": [
        1.0,
        0.0,
        0.0,
        0.0,
        0.0,
        1.0,
        0.0,
        0.0,
        0.0,
        0.0,
        1.0,
        0.0,
        0.0,
        -0.2309214174747467,
        -18.474767684936523,
        1.0
      ],
      "name": "Cube_1"
    },
    {
      "mesh": 5,
      "name": "Object_10"
    },
    {
      "mesh": 6,
      "name": "Object_11"
    },
    {
      "mesh": 7,
      "name": "Object_12"
    },
    {
      "mesh": 8,
      "name": "Object_13"
    }
  ],
  "scene": 0,
  "scenes": [
    {
      "name": "Sketchfab_Scene",
      "nodes": [
        0
      ]
    }
  ]
}
